/* XPM */
static char * floor_xpm[] = {
"20 20 7 1",
" 	c #A0E6A5",
".	c #92E398",
"+	c #8EE395",
"@	c #8DE294",
"#	c #8EE294",
"$	c #8FE396",
"%	c #8EE295",
" .+@@@@@@@@@@@@@@@@@",
"+@@@@@@@@@@@@@@@@@@@",
"@@@@@@@@@@@@@@@@@@@@",
"@@@@@@@@@@@@@@@@@@@@",
"@@@@@@@@@@@@@@@@@@@@",
"@@@@@@@@@@@@@@@@@@@@",
"@@@@@@@@@@@@@@@@@@@@",
"@@@@@@@@@@@@@@@@@@@@",
"@@@@@@@@@@@@@@##@@@@",
"@@@@@@@@#+++++#@@@@@",
"@@@@@++++#@@@@@@@@@@",
"@@@@@@@@@@@@@@@@@@@@",
"@@@@@@@@@@@@@@@@@@@@",
"@@@@@@@@@@@@@@@@@@@@",
"+@@@@@@@@@@@@@@@@@@@",
"$@@@@@@@@@@@@@@@@@@@",
"+@@@@@@@@@@@@@@@@@@@",
"@@@@@@@@@@@@@@@@@@@@",
"@@@@@@@@@@@@@@@@@@@@",
"#++++++++++%@@@@@@@@"};
