/* XPM */
static char *test[] = {
/* columns rows colors chars-per-pixel */
"20 20 256 2",
"   c black",
".  c #010101",
"X  c #020202",
"o  c gray1",
"O  c #040404",
"+  c gray2",
"@  c #060606",
"#  c #070707",
"$  c gray3",
"%  c #090909",
"&  c gray4",
"*  c #0B0B0B",
"=  c #0C0C0C",
"-  c gray5",
";  c #0E0E0E",
":  c gray6",
">  c #101010",
",  c #111111",
"<  c #131219",
"1  c #181429",
"2  c #1D163D",
"3  c #221752",
"4  c #271968",
"5  c #2B1A78",
"6  c #2E1A83",
"7  c #2F1A8A",
"8  c #301A8E",
"9  c #301B90",
"0  c #301B91",
"q  c #301B91",
"w  c #301B91",
"e  c #301B91",
"r  c #301B91",
"t  c #301B91",
"y  c #301B91",
"u  c #301B91",
"i  c #301B91",
"p  c #301B91",
"a  c #301B91",
"s  c #301B91",
"d  c #301B91",
"f  c #301B91",
"g  c #301B91",
"h  c #301B91",
"j  c #301B91",
"k  c #301B91",
"l  c #311B91",
"z  c #311B91",
"x  c #311B92",
"c  c #311B92",
"v  c #311B92",
"b  c #311B91",
"n  c #311B91",
"m  c #311B91",
"M  c #311B91",
"N  c #311B91",
"B  c #311B91",
"V  c #311B91",
"C  c #311B91",
"Z  c #311B91",
"A  c #311B91",
"S  c #311B91",
"D  c #311B91",
"F  c #311B91",
"G  c #311B91",
"H  c #311B91",
"J  c #311B91",
"K  c #311B91",
"L  c #311B91",
"P  c #311B91",
"I  c #311C90",
"U  c #321D8E",
"Y  c #331F8A",
"T  c #352385",
"R  c #38287D",
"E  c #3C3072",
"W  c #403769",
"Q  c #453E60",
"!  c #48445A",
"~  c #4B4857",
"^  c #4E4C54",
"/  c #515151",
"(  c gray32",
")  c #535353",
"_  c gray33",
"`  c #555555",
"'  c #565656",
"]  c gray34",
"[  c #585858",
"{  c gray35",
"}  c #5A5A5A",
"|  c #5B5B5B",
" . c gray36",
".. c #5D5D5D",
"X. c gray37",
"o. c #5F5F5F",
"O. c #606060",
"+. c gray38",
"@. c #626262",
"#. c gray39",
"$. c #646464",
"%. c #656565",
"&. c gray40",
"*. c #676767",
"=. c #686868",
"-. c DimGray",
";. c #6A6A6A",
":. c gray42",
">. c #6C6C6C",
",. c #6D6D6D",
"<. c gray43",
"1. c #6F6F6F",
"2. c gray44",
"3. c #717171",
"4. c #727272",
"5. c gray45",
"6. c #747474",
"7. c gray46",
"8. c #767676",
"9. c #777777",
"0. c gray47",
"q. c #797979",
"w. c gray48",
"e. c #7B7B7B",
"r. c #7C7C7C",
"t. c gray49",
"y. c #7E7E7E",
"u. c gray50",
"i. c #808080",
"p. c #818181",
"a. c gray51",
"s. c #838383",
"d. c #848484",
"f. c gray52",
"g. c #868686",
"h. c gray53",
"j. c #888888",
"k. c #898989",
"l. c gray54",
"z. c #8B8B8B",
"x. c gray55",
"c. c #8D8D8D",
"v. c #8E8E8E",
"b. c gray56",
"n. c #909090",
"m. c gray57",
"M. c #929292",
"N. c #939393",
"B. c gray58",
"V. c #959595",
"C. c gray59",
"Z. c #979797",
"A. c #989898",
"S. c gray60",
"D. c #9A9A9A",
"F. c #9B9B9B",
"G. c gray61",
"H. c #9D9D9D",
"J. c gray62",
"K. c #9F9F9F",
"L. c #A0A0A0",
"P. c gray63",
"I. c #A2A2A2",
"U. c gray64",
"Y. c #A4A4A4",
"T. c #A5A5A5",
"R. c gray65",
"E. c #A7A7A7",
"W. c gray66",
"Q. c #A9A9A9",
"!. c #AAAAAA",
"~. c gray67",
"^. c #ACACAC",
"/. c gray68",
"(. c #AEAEAE",
"). c #AFAFAF",
"_. c gray69",
"`. c #B1B1B1",
"'. c #B2B2B2",
"]. c gray70",
"[. c #B4B4B4",
"{. c gray71",
"}. c #B6B6B6",
"|. c #B7B7B7",
" X c gray72",
".X c #B9B9B9",
"XX c gray73",
"oX c #BBBBBB",
"OX c #BCBCBC",
"+X c gray74",
"@X c gray",
"#X c gray75",
"$X c #C0C0C0",
"%X c #C1C1C1",
"&X c gray76",
"*X c #C3C3C3",
"=X c gray77",
"-X c #C5C5C5",
";X c #C6C6C6",
":X c gray78",
">X c #C8C8C8",
",X c gray79",
"<X c #CACACA",
"1X c #CBCBCB",
"2X c gray80",
"3X c #CDCDCD",
"4X c #CECECE",
"5X c gray81",
"6X c #D0D0D0",
"7X c gray82",
"8X c #D2D2D2",
"9X c LightGray",
"0X c gray83",
"qX c #D5D5D5",
"wX c gray84",
"eX c #D7D7D7",
"rX c #D8D8D8",
"tX c gray85",
"yX c #DADADA",
"uX c gray86",
"iX c gainsboro",
"pX c #DDDDDD",
"aX c gray87",
"sX c #DFDFDF",
"dX c gray88",
"fX c #E1E1E1",
"gX c #E2E2E2",
"hX c gray89",
"jX c #E4E4E4",
"kX c gray90",
"lX c #E6E6E6",
"zX c #E7E7E7",
"xX c gray91",
"cX c #E9E9E9",
"vX c #EAEAEA",
"bX c gray92",
"nX c #ECECEC",
"mX c gray93",
"MX c #EEEEEE",
"NX c #EFEFEF",
"BX c gray94",
"VX c #F4F4F4",
"CX c #F8F8F8",
"ZX c #FBFBFB",
"AX c #FDFDFD",
"SX c #FEFEFE",
"DX c #FEFEFE",
"FX c #FEFEFE",
"GX c #FEFEFE",
"HX c #FEFEFE",
"JX c #FEFEFE",
"KX c #FEFEFE",
"LX c #FEFEFE",
"PX c #FEFEFE",
"IX c #FEFEFE",
"UX c gray100",
/* pixels */
"x x x x x x x x x x x x x x x x x x x x ",
"x UXUXUXUXUXUXUXUXUXUXUXUXUXUXUXUXUXUXx ",
"x UXx x x x x x x x x x x x x x x x UXx ",
"x UXx UXUXUXUXUXUXUXUXUXUXUXUXUXUXx UXx ",
"x UXx UXx x x x x x x x x x x x UXx UXx ",
"x UXx UXx UXUXUXUXUXUXUXUXUXUXx UXx UXx ",
"x UXx UXx UXx x x x x x x x UXx UXx UXx ",
"x UXx UXx UXx UXUXUXUXUXUXx UXx UXx UXx ",
"x UXx UXx UXx UXx x x x UXx UXx UXx UXx ",
"x UXx UXx UXx UXx UXUXx UXx UXx UXx UXx ",
"x UXx UXx UXx UXx UXUXx UXx UXx UXx UXx ",
"x UXx UXx UXx UXx x x x UXx UXx UXx UXx ",
"x UXx UXx UXx UXUXUXUXUXUXx UXx UXx UXx ",
"x UXx UXx UXx x x x x x x x UXx UXx UXx ",
"x UXx UXx UXUXUXUXUXUXUXUXUXUXx UXx UXx ",
"x UXx UXx x x x x x x x x x x x UXx UXx ",
"x UXx UXUXUXUXUXUXUXUXUXUXUXUXUXUXx UXx ",
"x UXx x x x x x x x x x x x x x x x UXx ",
"x UXUXUXUXUXUXUXUXUXUXUXUXUXUXUXUXUXUXx ",
"x x x x x x x x x x x x x x x x x x x x "
};
