/* XPM */
static char *plyer2d_2[] = {
/* columns rows colors chars-per-pixel */
"5 5 3 1",
"  c black",
". c gray100",
"X c None",
/* pixels */
".....",
".....",
".....",
"X...X",
"X...X"
};
