/* XPM */
static char *player2d[] = {
/* columns rows colors chars-per-pixel */
"10 10 3 1",
"  c black",
". c #990030",
"X c None",
/* pixels */
"XXXXXXXXXX",
"XXXXXXXXXX",
"XXXXXXXXXX",
"X........X",
"X...  ...X",
"X...  ...X",
"XXXX  XXXX",
"XXXX  XXXX",
"XXXX  XXXX",
"XXXX  XXXX"
};
